<svg width="128" height="128" viewBox="0 0 128 128" fill="none" xmlns="http://www.w3.org/2000/svg">
<path fill-rule="evenodd" clip-rule="evenodd" d="M60 102C80.9868 102 98 84.9868 98 64C98 43.0132 80.9868 26 60 26C39.0132 26 22 43.0132 22 64C22 84.9868 39.0132 102 60 102ZM60 83C70.4934 83 79 74.4934 79 64C79 53.5066 70.4934 45 60 45C49.5066 45 41 53.5066 41 64C41 74.4934 49.5066 83 60 83Z" fill="url(#paint0_linear_53_2064)"/>
<path d="M73 110H61C58.2386 110 56 107.761 56 105V23C56 20.2386 58.2386 18 61 18H61.9958C76.0223 18 88.7717 26.1469 94.6646 38.8755L108.028 67.7396C108.948 69.7278 107.496 72 105.305 72H99V90C99 93.3137 96.3137 96 93 96H81C79.3431 96 78 97.3431 78 99V105C78 107.761 75.7614 110 73 110Z" fill="#1B70F0"/>
<circle cx="60" cy="64" r="11" fill="#1B70F0"/>
<circle cx="91" cy="53" r="3" fill="white"/>
<path d="M26.5975 48.5C25.4428 46.5 22.5561 46.5 21.4014 48.5L16.2052 57.5C15.0505 59.5 16.4939 62 18.8033 62H29.1956C31.505 62 32.9484 59.5 31.7937 57.5L26.5975 48.5Z" fill="url(#paint1_linear_53_2064)"/>
<path d="M26.5975 79.5C25.4428 81.5 22.5561 81.5 21.4014 79.5L16.2052 70.5C15.0505 68.5 16.4939 66 18.8033 66H29.1956C31.505 66 32.9484 68.5 31.7937 70.5L26.5975 79.5Z" fill="url(#paint2_linear_53_2064)"/>
<path d="M66 64C66 67.3137 63.3137 70 60 70C59.023 70 58.1005 69.7665 57.2853 69.3522C55.9121 68.6543 56.7298 67 58.2702 67H59C59.5523 67 60 66.5523 60 66C60 65.4477 59.5523 65 59 65H55.0875C54.5077 65 54 64.5799 54 64C54 60.6863 56.6863 58 60 58C60.977 58 61.8995 58.2335 62.7147 58.6478C64.0879 59.3457 63.2702 61 61.7298 61H61C60.4477 61 60 61.4477 60 62C60 62.5523 60.4477 63 61 63H64.9124C65.4923 63 66 63.4201 66 64Z" fill="url(#paint3_linear_53_2064)"/>
<path d="M69 36C69 37.5913 69.6321 39.1174 70.7574 40.2426C71.8826 41.3679 73.4087 42 75 42C76.5913 42 78.1174 41.3679 79.2426 40.2426C80.3679 39.1174 81 37.5913 81 36" stroke="url(#paint4_linear_53_2064)" stroke-width="2" stroke-linecap="round"/>
<path d="M75 34C75 32.4087 74.3679 30.8826 73.2426 29.7574C72.1174 28.6321 70.5913 28 69 28C67.4087 28 65.8826 28.6321 64.7574 29.7574C63.6321 30.8826 63 32.4087 63 34" stroke="url(#paint5_linear_53_2064)" stroke-width="2" stroke-linecap="round"/>
<path d="M64.75 96.875C64.75 97.9105 63.9105 98.75 62.875 98.75C61.8395 98.75 61 97.9105 61 96.875C61 95.8395 61.8395 95 62.875 95C63.9105 95 64.75 95.8395 64.75 96.875Z" fill="url(#paint6_linear_53_2064)"/>
<path d="M64.75 103.125C64.75 104.161 63.9105 105 62.875 105C61.8395 105 61 104.161 61 103.125C61 102.089 61.8395 101.25 62.875 101.25C63.9105 101.25 64.75 102.089 64.75 103.125Z" fill="url(#paint7_linear_53_2064)"/>
<path d="M69.125 105C70.1605 105 71 104.161 71 103.125C71 102.089 70.1605 101.25 69.125 101.25C68.0895 101.25 67.25 102.089 67.25 103.125C67.25 104.161 68.0895 105 69.125 105Z" fill="url(#paint8_linear_53_2064)"/>
<defs>
<linearGradient id="paint0_linear_53_2064" x1="78.5" y1="64" x2="22" y2="64" gradientUnits="userSpaceOnUse">
<stop stop-color="#96C6FF"/>
<stop offset="1" stop-color="#F3F8FF"/>
</linearGradient>
<linearGradient id="paint1_linear_53_2064" x1="15.9995" y1="62.5" x2="41.9756" y2="65.6937" gradientUnits="userSpaceOnUse">
<stop stop-color="#ECF4FF"/>
<stop offset="1" stop-color="#8EC2FF"/>
</linearGradient>
<linearGradient id="paint2_linear_53_2064" x1="15.9995" y1="62.5" x2="41.9756" y2="65.6937" gradientUnits="userSpaceOnUse">
<stop stop-color="#ECF4FF"/>
<stop offset="1" stop-color="#8EC2FF"/>
</linearGradient>
<linearGradient id="paint3_linear_53_2064" x1="69.5" y1="61" x2="58.2386" y2="70.6777" gradientUnits="userSpaceOnUse">
<stop stop-color="#8EC2FF"/>
<stop offset="1" stop-color="#DBEAFF"/>
</linearGradient>
<linearGradient id="paint4_linear_53_2064" x1="75" y1="42" x2="75" y2="36" gradientUnits="userSpaceOnUse">
<stop stop-color="#BCDBFF"/>
<stop offset="1" stop-color="#639EF8"/>
</linearGradient>
<linearGradient id="paint5_linear_53_2064" x1="69" y1="28" x2="69" y2="34" gradientUnits="userSpaceOnUse">
<stop stop-color="#BCDBFF"/>
<stop offset="1" stop-color="#639EF8"/>
</linearGradient>
<linearGradient id="paint6_linear_53_2064" x1="71" y1="95" x2="67.9886" y2="106.786" gradientUnits="userSpaceOnUse">
<stop stop-color="#639EF8"/>
<stop offset="1" stop-color="#B6D7FF"/>
</linearGradient>
<linearGradient id="paint7_linear_53_2064" x1="71" y1="95" x2="67.9886" y2="106.786" gradientUnits="userSpaceOnUse">
<stop stop-color="#639EF8"/>
<stop offset="1" stop-color="#B6D7FF"/>
</linearGradient>
<linearGradient id="paint8_linear_53_2064" x1="71" y1="95" x2="67.9886" y2="106.786" gradientUnits="userSpaceOnUse">
<stop stop-color="#639EF8"/>
<stop offset="1" stop-color="#B6D7FF"/>
</linearGradient>
</defs>
</svg>
