<svg width="130" height="163" viewBox="0 0 130 163" fill="none" xmlns="http://www.w3.org/2000/svg">
<g style="mix-blend-mode:hard-light">
<path d="M127.68 41.1807L124.777 36.5728L119.985 31.4576L114.87 26.8036L109.801 22.887L103.811 18.6021L99.8021 15.976L94.6869 12.7046L89.9409 10.0785L84.7797 7.3603L78.8352 4.45707L75.0106 2.75234L70.7257 1.13966L68.6519 0.586428L66.9471 0.310303H65.2424L63.8373 0.921303L62.5242 2.26864L61.4188 3.44364L60.2095 5.58605L59.0345 7.90178L57.8252 11.0811L56.8225 13.6035L56.235 15.2964L55.9589 16.7133V18.372L56.5464 20.3068L57.5834 21.4123L66.3616 26.0085L75.7959 31.296L85.5758 37.2406L93.5932 42.4938L99.5025 46.7443L95.0443 45.8112L88.2704 44.221L82.2231 42.5623L77.0737 41.0417L73.065 39.7972L64.0449 36.8597L58.7917 35.2009L55.1971 34.1297L53.0547 33.5422L51.914 33.3004L50.739 33.3699L49.5297 33.7498L48.4585 34.6134L47.214 36.0646L45.5895 38.7259L43.1015 44.3934L42.2026 46.9852L41.7532 48.7477V50.1303V51.8585V52.6184L42.3407 53.7934L43.5157 55.3835L45.382 57.1803L50.3238 61.1205L60.5532 68.3428L57.0282 67.4439L50.3933 65.9928L45.3477 65.0597L41.995 64.8178L39.8526 64.7835L38.47 64.8178L37.157 65.233L35.8096 65.8205L34.5651 66.6498L33.5624 67.721L32.6636 68.9998L31.7304 70.6243L30.763 72.6286L29.6918 75.0129L28.7586 77.2591L28.0331 79.471L27.4456 82.1324L27.238 83.0195V84.4824V85.4156L28.7244 89.1481L29.2081 89.8737L30.3831 91.4639L31.5238 92.8807L33.1483 94.6432H31.2477L28.5178 94.9193H27.6884L25.2004 95.7144L23.6454 96.3019L20.3966 98.79L19.3939 99.8612L18.4265 101.451L17.9428 102.419L16.8716 104.561L15.6966 106.981L14.7291 109.503L13.2085 114.445L13.0009 115.724V116.968V118.109L13.277 119.837L13.8988 122.291L15.1081 124.675L14.4863 124.848L12.9999 125.505L10.5461 126.783L9.54348 127.301L7.43533 129.444L5.1196 132.105L3.14951 135.768L1.73266 138.982L0.453875 142.473L0.108227 144.477V146.032L0.350078 147.345L1.10991 148.554L2.25064 149.28L3.80556 149.729L5.25668 149.453L6.29363 148.935L7.46863 147.932L8.50556 146.585L9.30064 145.48L10.8908 144.339L14.0359 143.094L17.7685 142.299L23.1598 142.057L27.7217 142.161L31.8685 142.576L35.5658 145.168L41.5103 149.143L50.9799 154.638L61.4853 159.51L65.2179 160.857L69.1581 162.032L72.7174 162.586L75.6206 162.344L76.6233 161.894L77.5221 161.203L78.421 160.166L79.3541 158.991L80.3911 157.436L81.2547 155.881L82.0841 154.188L82.8096 152.53L83.8808 149.8L84.4341 148.175L84.8492 146.689L84.953 145.202L84.7112 143.751L84.0894 142.576L83.3981 141.609C83.3981 141.609 82.8801 141.056 81.9117 140.4C80.9443 139.743 79.3894 138.845 79.3894 138.845L76.0367 137.048L73.5144 135.769L70.5426 134.456L67.5356 133.212L64.84 132.175L62.0405 131.138L59.0688 129.997L56.7188 129.271L56.0275 129.03L50.4981 125.608L45.7981 122.36L41.8237 119.456L38.5748 116.899L35.7754 114.652L34.8765 113.754H35.602L38.6091 114.099L46.5579 115.378L56.5112 117.832L65.0475 120.424L71.7862 122.774L78.2487 125.193L82.9487 127.647L87.4411 129.686L88.6504 130.101L89.3074 130.17L90.1025 130.101L90.9661 129.859L91.7259 129.41L92.4858 128.892L93.5227 127.682L94.6977 125.92L95.907 123.5L97.1162 120.805L98.5331 117.245L98.9483 116.07L99.1206 114.999L99.2244 113.928V112.891L98.8787 111.75L98.4293 110.783L97.9113 110.023L97.1162 109.332L93.8331 106.982L89.4092 104.044L84.6054 101.003L80.113 98.2035L76.5185 95.8877L73.063 93.7101L69.3304 91.3601L66.6348 89.5281L71.0234 90.6688L87.5077 95.3688L99.0853 98.2025L100.778 98.4786L102.507 98.6862L103.785 98.5139L105.202 98.0987L105.997 97.7531L107 96.9237L108.347 95.1955L110.144 91.9466L111.25 89.8042L113.15 85.0347L113.738 82.7885L113.876 80.4042L113.668 78.4341L113.46 77.8809L111.768 75.1157L109.729 72.938L107.413 70.588L103.75 67.5467L103.404 67.1668L104.649 67.4087L107.552 67.6848L110.11 67.8571H112.978L114.636 67.7876L117.504 67.3039L118.126 67.0278L119.993 65.8528L121.271 64.9196L122.135 63.9522L122.86 62.9848L123.897 61.3261L124.969 59.4255L126.144 56.7642L127.249 54.2761L128.256 51.0644L128.809 48.4383L129.051 47.0557L128.913 45.5008L128.601 44.3601L128.083 42.8052L127.68 41.1807Z" fill="url(#paint0_linear_3901_67)"/>
</g>
<defs>
<linearGradient id="paint0_linear_3901_67" x1="96.3152" y1="-15.5525" x2="55.849" y2="158.846" gradientUnits="userSpaceOnUse">
<stop stop-color="#34E89E" stop-opacity="0.65"/>
<stop offset="1" stop-color="#0F3443"/>
</linearGradient>
</defs>
</svg>
