<svg width="62" height="62" viewBox="0 0 62 62" fill="none" xmlns="http://www.w3.org/2000/svg">
<path d="M60.5581 2V1.44191H60H7.58087C4.19042 1.44191 1.44191 4.19042 1.44191 7.58087V54.4191C1.44191 57.8096 4.19042 60.5581 7.58087 60.5581H60H60.5581V60V2Z" fill="#FD6F00"/>
<path d="M60.5581 2V1.44191H60H7.58087C4.19042 1.44191 1.44191 4.19042 1.44191 7.58087V54.4191C1.44191 57.8096 4.19042 60.5581 7.58087 60.5581H60H60.5581V60V2Z" stroke="white" stroke-width="1.11617"/>
<path d="M22.7337 26.4879C22.4114 24.3651 23.9082 22.4582 26.1948 21.7596C26.6006 21.6355 27.0384 21.6708 27.419 21.8583C27.7996 22.0458 28.0945 22.3714 28.2434 22.7687L28.9775 24.7262C29.0956 25.0411 29.117 25.3841 29.0388 25.7113C28.9607 26.0384 28.7865 26.3347 28.5387 26.5622L26.3551 28.5619C26.2475 28.6606 26.1673 28.7856 26.1223 28.9246C26.0774 29.0636 26.0692 29.2119 26.0986 29.355L26.1189 29.4427L26.1712 29.6621C26.4427 30.728 26.8565 31.7525 27.4014 32.7081C27.9949 33.7234 28.7314 34.6481 29.5884 35.4536L29.6559 35.5144C29.7649 35.6111 29.8971 35.678 30.0396 35.7085C30.1822 35.7389 30.3302 35.7319 30.4692 35.6882L33.2924 34.7989C33.6133 34.6981 33.9569 34.6956 34.2792 34.7915C34.6015 34.8874 34.8878 35.0774 35.1014 35.3372L36.4379 36.9589C36.9948 37.6339 36.9273 38.6261 36.2877 39.2218C34.5378 40.8536 32.1314 41.1877 30.4574 39.8428C28.4055 38.1876 26.6756 36.1689 25.3544 33.8876C24.0225 31.608 23.1344 29.0975 22.7337 26.4879ZM27.8671 29.4664L29.6761 27.8059C30.172 27.3511 30.5206 26.7586 30.6772 26.1043C30.8339 25.45 30.7914 24.7638 30.5553 24.1339L29.8229 22.1764C29.5231 21.3773 28.9301 20.7225 28.1645 20.3454C27.3989 19.9682 26.5183 19.897 25.702 20.1463C22.862 21.0154 20.5822 23.5618 21.0648 26.7427C21.4023 28.9635 22.1802 31.7884 23.8964 34.7381C25.3219 37.198 27.1878 39.3745 29.401 41.1591C31.912 43.1756 35.2634 42.4871 37.4403 40.4587C38.0632 39.8788 38.4413 39.083 38.4974 38.2338C38.5535 37.3845 38.2835 36.5459 37.7424 35.889L36.4059 34.2656C35.9783 33.7467 35.4055 33.3673 34.7609 33.1761C34.1163 32.9848 33.4292 32.9905 32.7879 33.1924L30.4439 33.9298C29.8387 33.3058 29.3086 32.6132 28.8644 31.866C28.4353 31.1106 28.1009 30.3052 27.8688 29.4681" fill="#F5F5F5"/>
</svg>
