<svg width="28" height="28" viewBox="0 0 28 28" fill="none" xmlns="http://www.w3.org/2000/svg">
<g clip-path="url(#clip0_53_1962)">
<path fill-rule="evenodd" clip-rule="evenodd" d="M23.546 7.11094C23.8272 7.39224 23.9852 7.7737 23.9852 8.17144C23.9852 8.56919 23.8272 8.95065 23.546 9.23194L12.303 20.4749C12.1544 20.6236 11.978 20.7414 11.7839 20.8219C11.5898 20.9023 11.3817 20.9437 11.1715 20.9437C10.9614 20.9437 10.7533 20.9023 10.5591 20.8219C10.365 20.7414 10.1886 20.6236 10.04 20.4749L4.45403 14.8899C4.31076 14.7516 4.19649 14.5861 4.11787 14.4031C4.03926 14.22 3.99788 14.0232 3.99615 13.824C3.99442 13.6249 4.03237 13.4274 4.10779 13.243C4.18322 13.0587 4.29459 12.8912 4.43543 12.7504C4.57627 12.6095 4.74375 12.4981 4.92809 12.4227C5.11244 12.3473 5.30996 12.3093 5.50913 12.3111C5.7083 12.3128 5.90513 12.3542 6.08813 12.4328C6.27114 12.5114 6.43666 12.6257 6.57503 12.7689L11.171 17.3649L21.424 7.11094C21.5633 6.97155 21.7287 6.86098 21.9108 6.78554C22.0928 6.7101 22.288 6.67126 22.485 6.67126C22.6821 6.67126 22.8772 6.7101 23.0593 6.78554C23.2413 6.86098 23.4067 6.97155 23.546 7.11094Z" fill="#4ECB71"/>
</g>
<circle cx="14" cy="14" r="14" fill="white" fill-opacity="0.2"/>
<defs>
<clipPath id="clip0_53_1962">
<rect width="24" height="24" fill="white" transform="translate(2 2)"/>
</clipPath>
</defs>
</svg>
