<svg width="30" height="47" viewBox="0 0 30 47" fill="none" xmlns="http://www.w3.org/2000/svg">
<path d="M29.0425 30.4797L22.9218 46.7428H5.98647L0.0683594 30.0129L10.7685 0.630737H13.9889V25.1721C12.5592 25.5831 11.5142 26.8953 11.5142 28.457C11.5142 30.3476 13.0436 31.877 14.9341 31.877C16.8188 31.877 18.3511 30.3476 18.3511 28.457C18.3511 26.8953 17.309 25.5861 15.8794 25.1721V0.630737H19.2201L29.0425 30.4797Z" fill="#F7528E"/>
<path d="M29.0425 30.4797L22.9218 46.7428H5.98647L0.0683594 30.0129L10.7685 0.630737H13.9889V25.1721C12.5592 25.5831 11.5142 26.8953 11.5142 28.457C11.5142 30.3476 13.0436 31.877 14.9341 31.877C16.8188 31.877 18.3511 30.3476 18.3511 28.457C18.3511 26.8953 17.309 25.5861 15.8794 25.1721V0.630737H19.2201L29.0425 30.4797Z" fill="url(#paint0_linear_53_2026)"/>
<defs>
<linearGradient id="paint0_linear_53_2026" x1="-6.18798" y1="-8.10073" x2="34.6466" y2="38.4996" gradientUnits="userSpaceOnUse">
<stop offset="0.181437" stop-color="#FAFF01"/>
<stop offset="0.644519" stop-color="#FE007A"/>
<stop offset="1" stop-color="#FF4848"/>
</linearGradient>
</defs>
</svg>
