<svg width="64" height="32" viewBox="0 0 64 32" fill="none" xmlns="http://www.w3.org/2000/svg">
<path d="M63.2482 31.1341C62.2061 27.2327 60.9174 23.4488 59.1326 19.9349L58.8067 19.2744C58.6922 19.0542 58.5631 18.8487 58.4427 18.6344L57.7206 17.3545L56.9221 16.1216C56.79 15.9161 56.6637 15.7076 56.5228 15.508L56.0884 14.9209C54.9611 13.3269 53.6695 11.862 52.2692 10.5146C51.9228 10.177 51.5764 9.83063 51.1977 9.52533L50.6458 9.04976C50.4609 8.89124 50.2789 8.73272 50.0822 8.58594L48.9256 7.69646L47.7249 6.86276C46.0986 5.78834 44.3754 4.85189 42.5818 4.05047C40.7852 3.252 38.9241 2.57389 37.0101 2.05722C36.056 1.77541 35.0843 1.56405 34.1039 1.36149C33.8132 1.29985 33.5226 1.24701 33.232 1.19416C33.1057 1.17068 32.9795 1.15306 32.8533 1.13251C32.777 1.12077 32.7007 1.10903 32.6243 1.09436C32.5744 1.08555 32.5245 1.07674 32.4746 1.07087V0.803728C32.6008 0.797857 32.73 0.79786 32.8533 0.79786C32.9795 0.791989 33.1057 0.791989 33.232 0.79786C33.5461 0.800796 33.8573 0.806663 34.1684 0.821341C34.5383 0.836019 34.9082 0.85951 35.2781 0.891801C35.921 0.944641 36.5639 1.0239 37.2068 1.1149C38.2166 1.26168 39.2176 1.47891 40.2157 1.71376C41.2079 1.96915 42.1914 2.26271 43.1572 2.61498C45.0917 3.31071 46.9646 4.209 48.7318 5.28929C50.499 6.36664 52.1371 7.6583 53.6342 9.0938L54.1949 9.63687C54.3857 9.81301 54.5501 10.0156 54.7263 10.2034C55.0727 10.588 55.4337 10.9608 55.7655 11.3601L56.7283 12.5813C56.8927 12.7809 57.0395 12.9952 57.1833 13.2065L57.6237 13.8465L58.0611 14.4864C58.1991 14.7037 58.3253 14.9297 58.4574 15.1528C58.7187 15.5961 58.9799 16.0423 59.2324 16.4914L59.9193 17.8741C60.0279 18.106 60.1483 18.335 60.251 18.5698L60.5446 19.2832C62.1092 23.0789 63.0193 27.1006 63.2482 31.1341Z" fill="#F7528E"/>
<path d="M29.3646 0.815674V1.31765C29.2912 1.33233 29.2178 1.34702 29.1444 1.3617C29.0915 1.3705 29.0387 1.38518 28.9859 1.39398C28.8596 1.4204 28.7334 1.44682 28.6072 1.47618C27.8116 1.64351 27.0161 1.82845 26.2382 2.05743C24.3212 2.57409 22.4601 3.2522 20.6664 4.05067C18.8699 4.84915 17.1467 5.7856 15.5233 6.86296L14.3227 7.69666L13.166 8.58614C12.9723 8.73292 12.7874 8.89144 12.6024 9.04996L12.0505 9.52553C11.6718 9.83083 11.3284 10.1772 10.979 10.5148C9.57877 11.8622 8.28713 13.3271 7.15987 14.9211L6.7254 15.5082C6.58449 15.7078 6.45826 15.9163 6.32616 16.1218L5.52768 17.3547L4.80554 18.6346C4.68518 18.8489 4.55308 19.0573 4.44153 19.2746L4.11566 19.9351C2.33083 23.449 1.04213 27.2329 0 31.1343C0.228975 27.1008 1.13606 23.0791 2.70659 19.2834L3.00015 18.57C3.09996 18.3352 3.22325 18.1062 3.33187 17.8743L4.0188 16.4916C4.27126 16.0425 4.53252 15.5963 4.79378 15.153C4.92588 14.9299 5.05212 14.7039 5.1901 14.4867L5.62749 13.8467L6.06783 13.2067C6.21461 12.9954 6.35845 12.7811 6.52284 12.5815L7.48572 11.3603C7.81744 10.961 8.17851 10.5882 8.52491 10.2036C8.70104 10.0128 8.86837 9.81027 9.05624 9.63707L9.61695 9.094C11.1141 7.6585 12.7521 6.36684 14.5193 5.28949C16.2866 4.2092 18.1595 3.31091 20.094 2.61518C21.0598 2.26585 22.0432 1.96935 23.0355 1.71396C24.0335 1.47911 25.0316 1.26188 26.0444 1.1151C26.6844 1.02116 27.3302 0.944842 27.9731 0.892002C28.1845 0.874388 28.3958 0.859712 28.613 0.84797C28.7393 0.839163 28.8655 0.83329 28.9917 0.827419C29.024 0.824483 29.0534 0.824477 29.0857 0.821542C29.1767 0.818606 29.2706 0.815674 29.3646 0.815674Z" fill="#F7528E"/>
</svg>
